<svg width="128" height="128" viewBox="0 0 128 128" fill="none" xmlns="http://www.w3.org/2000/svg">
<g clip-path="url(#clip0_3_87)">
<path d="M120.14 111.765C120.14 116.183 116.558 119.765 112.14 119.765H30.0164C22.8802 119.765 19.315 111.129 24.3725 106.095L26.3818 104.095C27.881 102.602 29.9102 101.765 32.0256 101.765H41.1396C45.5579 101.765 49.1397 98.1829 49.1397 93.7647V84.765C49.1397 82.6369 49.9876 80.5964 51.4959 79.0951L52.5009 78.0947C54.0001 76.6024 56.0293 75.7647 58.1447 75.7647H65.1397C69.5579 75.7647 73.1397 72.1829 73.1397 67.7647V60.8743C73.1397 58.7462 73.9875 56.7058 75.4958 55.2045L106.496 24.3462C111.541 19.3242 120.14 22.8976 120.14 30.016V111.765Z" fill="#7030A0"/>
<path d="M58.4344 46.4851C61.4812 49.5954 61.4812 54.5713 58.4344 57.6816L21.7149 95.1661C16.6995 100.286 8 96.7349 8 89.5678V14.5988C8 7.43175 16.6995 3.88074 21.7149 9.00059L58.4344 46.4851Z" fill="#58D130"/>
</g>
<defs>
<clipPath id="clip0_3_87">
<rect width="128" height="128" fill="white"/>
</clipPath>
</defs>
</svg>
