<svg xmlns="http://www.w3.org/2000/svg" fill="none" viewBox="0 0 99 24">
  <path fill="#6EE7B7" d="M9.7241 7.7173c.5875.6015.5875 1.5639 0 2.1654l-7.0798 7.2497C1.6773 18.1226 0 17.4358 0 16.0497V1.5503C0 .1642 1.6773-.5226 2.6443.4676l7.0798 7.2497Z"/>
  <path fill="#8B5CF6" d="M24 22.0361C24 23.1207 23.1344 24 22.0666 24H2.2196C.495 24-.3666 21.8801.8556 20.6442l.4856-.491c.3623-.3663.8528-.572 1.364-.572h2.2026c1.0678 0 1.9334-.8792 1.9334-1.9639V15.408c0-.5224.205-1.0233.5695-1.3919l.2428-.2455c.3624-.3664.8528-.572 1.364-.572h1.6905c1.0678 0 1.9334-.8793 1.9334-1.9639V9.5432c0-.5225.2049-1.0234.5694-1.392L20.7026.576C21.9219-.657 24 .2204 24 1.9678v20.0683Z"/>
  <path fill="#8B5CF6" d="M31.744 14.236c-1.728-1.104-2.592-2.616-2.592-4.536 0-1.936.648-3.416 1.944-4.44 1.296-1.04 3.096-1.56 5.4-1.56H43.6c.176 0 .328.064.456.192s.192.28.192.456v15.504c0 .176-.064.328-.192.456s-.28.192-.456.192h-4.704c-.176 0-.328-.064-.456-.192s-.192-.28-.192-.456v-4.584h-.984L35.2 19.852c-.192.432-.536.648-1.032.648h-4.92c-.144 0-.272-.048-.384-.144-.096-.112-.144-.224-.144-.336 0-.112.024-.216.072-.312l2.952-5.472Zm6.504-3.528V8.164h-1.752c-.368 0-.648.136-.84.408-.176.256-.264.56-.264.912s.096.648.288.888c.192.224.464.336.816.336h1.752ZM48.0205 3.7h7.152c2.304 0 4.104.496 5.4 1.488 1.296.992 1.944 2.456 1.944 4.392 0 1.936-.648 3.368-1.944 4.296-1.28.928-3.08 1.392-5.4 1.392h-1.56v4.584c0 .176-.064.328-.192.456s-.28.192-.456.192h-4.944c-.176 0-.328-.064-.456-.192s-.192-.28-.192-.456V4.348c0-.176.064-.328.192-.456s.28-.192.456-.192Zm5.472 4.464v2.664h1.68c.288 0 .544-.104.768-.312.224-.224.336-.536.336-.936s-.088-.736-.264-1.008c-.176-.272-.456-.408-.84-.408h-1.68Zm11.9957 7.2h2.4c.8 0 1.24-.112 1.32-.336l-5.592-10.584c-.016-.048-.024-.104-.024-.168.064-.384.264-.576.6-.576h5.016c.336 0 .592.192.768.576l2.232 4.728 1.776-4.728c.16-.384.432-.576.816-.576h4.968c.144 0 .272.056.384.168.112.096.168.208.168.336 0 .128-.008.208-.024.24l-4.776 11.16c-.832 1.952-1.712 3.256-2.64 3.912-.912.656-2.376.984-4.392.984h-3c-.176 0-.328-.064-.456-.192s-.192-.28-.192-.456v-3.84c0-.176.064-.328.192-.456s.28-.192.456-.192Zm22.2849-5.28v4.032c0 1.296.592 1.944 1.776 1.944.912 0 1.512-.432 1.8-1.296.08-.272.176-.456.288-.552.128-.096.328-.144.6-.144h4.896c.144 0 .264.056.36.168.112.096.168.216.168.36 0 1.392-.4 2.56-1.2 3.504-1.472 1.76-3.768 2.64-6.888 2.64-2.448 0-4.4-.536-5.856-1.608-1.456-1.088-2.184-2.752-2.184-4.992v-4.08c0-2.192.744-3.84 2.232-4.944 1.488-1.104 3.424-1.656 5.808-1.656 3.12 0 5.416.88 6.888 2.64.8.944 1.2 2.112 1.2 3.504 0 .144-.056.272-.168.384-.096.096-.216.144-.36.144h-4.896c-.256 0-.448-.048-.576-.144-.112-.096-.216-.28-.312-.552-.304-.864-.904-1.296-1.8-1.296-1.184 0-1.776.648-1.776 1.944Z"/>
</svg>