<svg xmlns="http://www.w3.org/2000/svg" fill="none" viewBox="0 0 24 24">
  <path fill="#6EE7B7" d="M9.7241 7.7173c.5875.6015.5875 1.5639 0 2.1654l-7.0798 7.2497C1.6773 18.1226 0 17.4358 0 16.0497V1.5503C0 .1642 1.6773-.5226 2.6443.4676l7.0798 7.2497Z"/>
  <path fill="#8B5CF6" d="M24 22.0361C24 23.1207 23.1344 24 22.0666 24H2.2196C.495 24-.3666 21.8801.8556 20.6442l.4856-.491c.3623-.3663.8528-.572 1.364-.572h2.2026c1.0678 0 1.9334-.8792 1.9334-1.9639V15.408c0-.5224.205-1.0233.5695-1.3919l.2428-.2455c.3624-.3664.8528-.572 1.364-.572h1.6905c1.0678 0 1.9334-.8793 1.9334-1.9639V9.5432c0-.5225.2049-1.0234.5694-1.392L20.7026.576C21.9219-.657 24 .2204 24 1.9678v20.0683Z"/>
</svg>